<?xml version="1.0" standalone="no"?>
<!DOCTYPE svg PUBLIC "-//W3C//DTD SVG 20010904//EN"
 "http://www.w3.org/TR/2001/REC-SVG-20010904/DTD/svg10.dtd">
<svg version="1.0" xmlns="http://www.w3.org/2000/svg"
 width="512.000000pt" height="512.000000pt" viewBox="0 0 512.000000 512.000000"
 preserveAspectRatio="xMidYMid meet">
<metadata>
Created by potrace 1.14, written by Peter Selinger 2001-2017
</metadata>
<g transform="translate(0.000000,512.000000) scale(0.100000,-0.100000)"
fill="#000000" stroke="none">
<path d="M477 4758 c13 -73 37 -212 54 -308 17 -96 41 -238 55 -315 13 -77 30
-173 36 -213 l12 -72 530 -531 530 -530 -224 -224 -225 -225 -117 117 -118
117 -145 -146 c-80 -80 -145 -148 -145 -152 0 -3 95 -100 212 -216 l212 -211
-349 -349 -348 -349 -74 76 c-73 75 -74 75 -95 57 -12 -11 -79 -77 -150 -148
l-129 -130 95 -95 95 -96 -28 -40 c-36 -54 -51 -101 -51 -163 0 -143 128 -274
268 -273 85 1 121 11 170 48 18 13 37 23 42 21 5 -2 50 -43 100 -92 l89 -89
147 147 c81 81 144 150 140 154 -3 4 -38 39 -76 77 l-70 70 350 350 350 350
212 -213 c117 -116 214 -212 218 -212 3 0 70 65 150 145 l145 145 -118 118
-117 117 224 224 223 223 226 -224 226 -224 -115 -115 c-63 -62 -113 -118
-111 -122 1 -5 67 -73 146 -152 l143 -143 214 216 214 215 345 -344 c189 -189
345 -348 345 -352 0 -5 -31 -40 -70 -78 -38 -38 -70 -72 -70 -77 0 -4 65 -72
145 -152 l145 -145 95 95 c84 83 97 93 113 82 153 -111 351 -70 433 90 44 86
32 216 -27 293 l-22 30 94 95 94 95 -148 148 -148 148 -76 -77 -75 -76 -347
346 c-190 190 -346 349 -346 353 0 5 80 88 178 185 97 97 192 192 211 211 l33
35 -147 147 -148 147 -117 -117 -117 -117 -159 160 c-87 88 -188 189 -224 226
l-64 66 524 524 c288 289 528 535 532 546 4 12 10 36 12 53 3 18 16 100 31
182 14 83 28 160 30 173 2 12 6 30 9 40 2 9 7 39 11 66 3 27 8 52 9 55 2 3 7
28 10 54 4 26 11 71 17 100 5 29 11 63 14 77 2 14 11 66 19 115 9 50 16 96 16
103 0 15 -13 14 -250 -28 -91 -16 -307 -54 -480 -85 l-315 -55 -527 -527 -528
-528 -529 527 c-443 441 -534 528 -562 533 -19 3 -59 10 -89 16 -30 6 -66 12
-80 14 -25 3 -353 61 -400 70 -37 7 -380 66 -416 72 l-31 4 24 -133z"/>
</g>
</svg>
